<?xml version="1.0" encoding="UTF-8" standalone="no"?>
<!-- Created with Inkscape (http://www.inkscape.org/) -->

<svg
   xmlns:dc="http://purl.org/dc/elements/1.1/"
   xmlns:cc="http://creativecommons.org/ns#"
   xmlns:rdf="http://www.w3.org/1999/02/22-rdf-syntax-ns#"
   xmlns:svg="http://www.w3.org/2000/svg"
   xmlns="http://www.w3.org/2000/svg"
   xmlns:sodipodi="http://sodipodi.sourceforge.net/DTD/sodipodi-0.dtd"
   xmlns:inkscape="http://www.inkscape.org/namespaces/inkscape"
   width="128"
   height="16"
   id="svg2"
   version="1.1"
   inkscape:version="0.48.1 r9760"
   sodipodi:docname="waypoint.svg">
  <defs
     id="defs4">
    <inkscape:path-effect
       is_visible="true"
       id="path-effect3022"
       effect="spiro" />
    <inkscape:path-effect
       is_visible="true"
       id="path-effect3022-6"
       effect="spiro" />
    <inkscape:path-effect
       is_visible="true"
       id="path-effect3022-0"
       effect="spiro" />
    <inkscape:path-effect
       is_visible="true"
       id="path-effect3022-2"
       effect="spiro" />
    <inkscape:path-effect
       is_visible="true"
       id="path-effect3022-05"
       effect="spiro" />
    <inkscape:path-effect
       is_visible="true"
       id="path-effect3022-8"
       effect="spiro" />
    <inkscape:path-effect
       is_visible="true"
       id="path-effect3022-5"
       effect="spiro" />
  </defs>
  <sodipodi:namedview
     id="base"
     pagecolor="#ffffff"
     bordercolor="#666666"
     borderopacity="1.0"
     inkscape:pageopacity="0.0"
     inkscape:pageshadow="2"
     inkscape:zoom="1"
     inkscape:cx="79.922472"
     inkscape:cy="-7.2620158"
     inkscape:document-units="px"
     inkscape:current-layer="layer1"
     showgrid="false"
     inkscape:showpageshadow="false"
     borderlayer="false"
     showborder="true"
     inkscape:window-width="1918"
     inkscape:window-height="1059"
     inkscape:window-x="0"
     inkscape:window-y="19"
     inkscape:window-maximized="0"
     showguides="true"
     inkscape:guide-bbox="true"
     inkscape:snap-bbox="false"
     fit-margin-top="0"
     fit-margin-left="0"
     fit-margin-right="0"
     fit-margin-bottom="0">
    <inkscape:grid
       type="xygrid"
       id="grid2985"
       empspacing="2"
       visible="true"
       enabled="true"
       snapvisiblegridlinesonly="true"
       dotted="false"
       spacingx="0.5px"
       spacingy="0.5px" />
    <inkscape:grid
       type="xygrid"
       id="grid7192"
       empspacing="5"
       visible="true"
       enabled="true"
       snapvisiblegridlinesonly="true"
       spacingx="16px"
       spacingy="16px"
       color="#ff0000"
       opacity="1"
       empcolor="#ff0000"
       empopacity="1" />
  </sodipodi:namedview>
  <metadata
     id="metadata7">
    <rdf:RDF>
      <cc:Work
         rdf:about="">
        <dc:format>image/svg+xml</dc:format>
        <dc:type
           rdf:resource="http://purl.org/dc/dcmitype/StillImage" />
        <dc:title></dc:title>
      </cc:Work>
    </rdf:RDF>
  </metadata>
  <g
     inkscape:label="Ebene 1"
     inkscape:groupmode="layer"
     id="layer1"
     transform="translate(0,-1020.3622)">
    <g
       id="g3554"
       style="font-size:20.79808807px;font-style:normal;font-variant:normal;font-weight:normal;font-stretch:normal;text-align:start;line-height:125%;letter-spacing:0px;word-spacing:0px;text-anchor:start;fill:#000000;fill-opacity:1;stroke:none;font-family:Aller;-inkscape-font-specification:Aller"
       transform="translate(0,-15.999965)" />
    <g
       id="g3558"
       style="font-size:20.79808807px;font-style:normal;font-variant:normal;font-weight:normal;font-stretch:normal;text-align:start;line-height:125%;letter-spacing:0px;word-spacing:0px;text-anchor:start;fill:#000000;fill-opacity:1;stroke:none;font-family:Aller;-inkscape-font-specification:Aller"
       transform="translate(13.947431,-17.079365)" />
    <g
       transform="translate(16,-15.999965)"
       inkscape:label="Ebene 1"
       id="g3160">
      <rect
         style="fill:#000000;fill-opacity:1;stroke:none"
         id="rect3162"
         width="10"
         height="10"
         x="3"
         y="3"
         transform="translate(0,1036.3622)" />
      <rect
         style="fill:#ffffff;fill-opacity:1;stroke:none"
         id="rect3164"
         width="8"
         height="8"
         x="4"
         y="4"
         transform="translate(0,1036.3622)" />
    </g>
    <path
       sodipodi:type="arc"
       style="color:#000000;fill:#ffffff;fill-opacity:1;fill-rule:nonzero;stroke:#000000;stroke-width:1;stroke-linecap:square;stroke-linejoin:miter;stroke-miterlimit:4;stroke-opacity:1;stroke-dasharray:none;marker:none;visibility:visible;display:inline;overflow:visible;enable-background:accumulate"
       id="path3168"
       sodipodi:cx="8"
       sodipodi:cy="8"
       sodipodi:rx="5"
       sodipodi:ry="5"
       d="M 13,8 A 5,5 0 1 1 3,8 5,5 0 1 1 13,8 z"
       transform="translate(0,1020.3622)" />
    <rect
       style="color:#000000;fill:#a05a2c;fill-opacity:1;fill-rule:nonzero;stroke:#502d16;stroke-width:1;stroke-linecap:square;stroke-linejoin:miter;stroke-miterlimit:4;stroke-opacity:1;stroke-dasharray:none;marker:none;visibility:visible;display:inline;overflow:visible;enable-background:accumulate"
       id="rect3179"
       width="2"
       height="13"
       x="38.5"
       y="1.5"
       transform="translate(0,1020.3622)" />
    <path
       style="color:#000000;fill:#a05a2c;fill-opacity:1;fill-rule:nonzero;stroke:#502d16;stroke-width:1;stroke-linecap:square;stroke-linejoin:miter;stroke-miterlimit:4;stroke-opacity:1;marker:none;visibility:visible;display:inline;overflow:visible;enable-background:accumulate"
       d="m 34.5,1023.8622 9,-1 3,2 -3,2 -9,-1 z"
       id="rect3174"
       inkscape:connector-curvature="0"
       sodipodi:nodetypes="cccccc" />
    <path
       sodipodi:nodetypes="cccccc"
       inkscape:connector-curvature="0"
       id="path3177"
       d="m 45.5,1028.3622 -9,-1 -3,2 3,2 9,-1 z"
       style="color:#000000;fill:#a05a2c;fill-opacity:1;fill-rule:nonzero;stroke:#502d16;stroke-width:1;stroke-linecap:square;stroke-linejoin:miter;stroke-miterlimit:4;stroke-opacity:1;marker:none;visibility:visible;display:inline;overflow:visible;enable-background:accumulate" />
    <path
       sodipodi:type="arc"
       style="color:#000000;fill:none;stroke:#4d4d4d;stroke-width:1;stroke-linecap:square;stroke-linejoin:miter;stroke-miterlimit:4;stroke-opacity:1;stroke-dasharray:none;marker:none;visibility:visible;display:inline;overflow:visible;enable-background:accumulate"
       id="path3181"
       sodipodi:cx="56"
       sodipodi:cy="8"
       sodipodi:rx="5"
       sodipodi:ry="5"
       d="M 61,8 A 5,5 0 1 1 51,8 5,5 0 1 1 61,8 z"
       transform="translate(0,1020.3622)" />
    <rect
       style="color:#000000;fill:#4d4d4d;stroke:none;stroke-width:1;marker:none;visibility:visible;display:inline;overflow:visible;enable-background:accumulate"
       id="rect3185"
       width="2"
       height="5"
       x="55"
       y="1"
       transform="translate(0,1020.3622)" />
    <rect
       transform="matrix(0,-1,1,0,0,0)"
       y="49"
       x="-1029.3622"
       height="5"
       width="2"
       id="rect3187"
       style="color:#000000;fill:#4d4d4d;stroke:none;stroke-width:1;marker:none;visibility:visible;display:inline;overflow:visible;enable-background:accumulate" />
    <rect
       y="1030.3622"
       x="55"
       height="5"
       width="2"
       id="rect3189"
       style="color:#000000;fill:#4d4d4d;stroke:none;stroke-width:1;marker:none;visibility:visible;display:inline;overflow:visible;enable-background:accumulate" />
    <rect
       style="color:#000000;fill:#4d4d4d;stroke:none;stroke-width:1;marker:none;visibility:visible;display:inline;overflow:visible;enable-background:accumulate"
       id="rect3191"
       width="2"
       height="5"
       x="-1029.3622"
       y="58"
       transform="matrix(0,-1,1,0,0,0)" />
    <path
       transform="translate(0,1020.3622)"
       style="color:#000000;fill:#ffeeaa;fill-opacity:1;fill-rule:nonzero;stroke:#000000;stroke-width:1;marker:none;visibility:visible;display:inline;overflow:visible;enable-background:accumulate"
       d="m 67.5,2.5 9,0 c 0.554,0 1,0.446 1,1 l 0,6 c 0,0.554 -0.446,1 -1,1 l -6,0 -2,2 0,-2 -1,0 c -0.554,0 -1,-0.446 -1,-1 l 0,-6 c 0,-0.554 0.446,-1 1,-1 z"
       id="rect3193"
       inkscape:connector-curvature="0"
       sodipodi:nodetypes="ssssscccssss" />
    <g
       style="font-size:8px;font-style:normal;font-variant:normal;font-weight:bold;font-stretch:normal;text-align:center;line-height:125%;letter-spacing:0px;word-spacing:0px;text-anchor:middle;fill:#000000;fill-opacity:1;stroke:none;font-family:Aller;-inkscape-font-specification:Aller Bold"
       id="text3196">
      <path
         d="m 71.416373,1026.5759 c 0.122665,-0.021 0.250665,-0.051 0.384,-0.088 0.133331,-0.043 0.255998,-0.099 0.368,-0.168 0.111997,-0.069 0.202664,-0.1547 0.272,-0.256 0.07466,-0.1067 0.111997,-0.2373 0.112,-0.392 -3e-6,-0.2293 -0.08267,-0.4027 -0.248,-0.52 -0.165336,-0.1227 -0.384002,-0.184 -0.656,-0.184 -0.112002,0 -0.213335,0.01 -0.304,0.016 -0.08534,0.01 -0.165335,0.019 -0.24,0.04 -0.07467,0.016 -0.152001,0.037 -0.232,0.064 -0.07467,0.021 -0.154668,0.048 -0.24,0.08 -0.07467,-0.1387 -0.136001,-0.2827 -0.184,-0.432 -0.048,-0.1493 -0.07733,-0.304 -0.088,-0.464 0.138666,-0.048 0.266666,-0.088 0.384,-0.12 0.117332,-0.037 0.231999,-0.067 0.344,-0.088 0.111998,-0.021 0.223998,-0.035 0.336,-0.04 0.111998,-0.011 0.231998,-0.016 0.36,-0.016 0.639997,0 1.122663,0.1467 1.448,0.44 0.325329,0.288 0.487996,0.6853 0.488,1.192 -4e-6,0.2507 -0.048,0.4667 -0.144,0.648 -0.096,0.1813 -0.213337,0.336 -0.352,0.464 -0.133337,0.1227 -0.272003,0.224 -0.416,0.304 -0.144003,0.075 -0.261336,0.1307 -0.352,0.168 l 0,0.728 c -0.186669,0.032 -0.365336,0.048 -0.536,0.048 -0.176002,0 -0.344002,-0.016 -0.504,-0.048 l 0,-1.376 m -0.08,3.184 c -0.032,-0.1973 -0.048,-0.392 -0.048,-0.584 -2e-6,-0.192 0.016,-0.3893 0.048,-0.592 0.197331,-0.032 0.391998,-0.048 0.584,-0.048 0.191998,0 0.389331,0.016 0.592,0.048 0.032,0.2027 0.048,0.3973 0.048,0.584 -3e-6,0.1973 -0.016,0.3947 -0.048,0.592 -0.202669,0.032 -0.397336,0.048 -0.584,0.048 -0.197335,0 -0.394669,-0.016 -0.592,-0.048"
         id="path3219"
         inkscape:connector-curvature="0" />
    </g>
    <rect
       style="color:#000000;fill:#0000aa;fill-opacity:1;fill-rule:nonzero;stroke:#00002b;stroke-width:1;stroke-linecap:square;stroke-linejoin:miter;stroke-miterlimit:4;stroke-opacity:1;stroke-dasharray:none;marker:none;visibility:visible;display:inline;overflow:visible;enable-background:accumulate"
       id="rect3221"
       width="11"
       height="11"
       x="114.5"
       y="2.5"
       transform="translate(0,1020.3622)" />
    <g
       style="font-size:10.98097801px;font-style:normal;font-variant:normal;font-weight:bold;font-stretch:normal;text-align:start;line-height:125%;letter-spacing:0px;word-spacing:0px;text-anchor:start;fill:#ffffff;fill-opacity:1;stroke:none;font-family:Aller;-inkscape-font-specification:Aller Bold"
       id="text3214">
      <path
         d="m 117.38653,1024.42 c 0.33675,-0.029 0.67716,-0.051 1.02123,-0.066 0.34407,-0.022 0.6918,-0.033 1.04319,-0.033 0.36603,0 0.73572,0.037 1.10908,0.1098 0.38067,0.073 0.72108,0.2123 1.02123,0.4173 0.30746,0.1976 0.55636,0.4758 0.74671,0.8345 0.19033,0.3587 0.2855,0.8236 0.2855,1.3946 0,0.571 -0.0952,1.0359 -0.2855,1.3946 -0.19035,0.3514 -0.43559,0.6296 -0.73573,0.8345 -0.30015,0.205 -0.6369,0.3441 -1.01025,0.4173 -0.36603,0.073 -0.72841,0.1098 -1.08711,0.1098 -0.0952,0 -0.18668,0 -0.27453,0 -0.0805,-0.01 -0.1574,-0.015 -0.2306,-0.022 l 0,2.5366 c -0.13909,0.022 -0.27453,0.037 -0.4063,0.044 -0.13177,0.01 -0.25988,0.011 -0.38433,0.011 -0.11713,0 -0.24524,0 -0.38433,-0.011 -0.1391,-0.01 -0.28185,-0.022 -0.42826,-0.044 l 0,-7.9283 m 1.60322,4.063 c 0.0879,0.015 0.16837,0.022 0.24158,0.022 0.0805,0 0.17569,0 0.28551,0 0.18301,0 0.36237,-0.022 0.53807,-0.066 0.17569,-0.051 0.32942,-0.1317 0.4612,-0.2415 0.13908,-0.1098 0.24889,-0.2526 0.32943,-0.4283 0.0805,-0.183 0.12078,-0.4063 0.12079,-0.6698 -1e-5,-0.2709 -0.0403,-0.4978 -0.12079,-0.6809 -0.0805,-0.1903 -0.19035,-0.3404 -0.32943,-0.4502 -0.13178,-0.1171 -0.28551,-0.1976 -0.4612,-0.2416 -0.1757,-0.051 -0.35506,-0.077 -0.53807,-0.077 -0.0805,0 -0.1574,0 -0.2306,0.011 -0.0659,0 -0.16472,0.01 -0.29649,0.022 l 0,2.8002"
         id="path3224"
         inkscape:connector-curvature="0" />
    </g>
    <path
       style="fill:#ff0000;stroke:#2b0000;stroke-width:1px;stroke-linecap:butt;stroke-linejoin:miter;stroke-opacity:1"
       d="m 99.520146,1022.0032 9.469824,0.5685 -7.91688,5.2271 z"
       id="path4012"
       inkscape:connector-curvature="0" />
    <rect
       y="1012.7185"
       x="-170.38506"
       height="13"
       width="2"
       id="rect4010"
       style="color:#000000;fill:#a05a2c;fill-opacity:1;fill-rule:nonzero;stroke:#502d16;stroke-width:1;stroke-linecap:square;stroke-linejoin:miter;stroke-miterlimit:4;stroke-opacity:1;stroke-dasharray:none;marker:none;visibility:visible;display:inline;overflow:visible;enable-background:accumulate"
       transform="matrix(0.96592583,-0.25881904,0.25881904,0.96592583,0,0)" />
    <rect
       style="color:#000000;fill:#2d5016;fill-opacity:1;fill-rule:nonzero;stroke:#2b0000;stroke-width:1;stroke-linecap:square;stroke-linejoin:miter;stroke-miterlimit:4;stroke-opacity:1;stroke-dasharray:none;marker:none;visibility:visible;display:inline;overflow:visible;enable-background:accumulate"
       id="rect4014"
       width="11"
       height="11"
       x="82.5"
       y="2.5"
       transform="translate(0,1020.3622)" />
    <path
       sodipodi:type="arc"
       style="color:#000000;fill:#ffffff;fill-opacity:1;fill-rule:nonzero;stroke:none;stroke-width:1;marker:none;visibility:visible;display:inline;overflow:visible;enable-background:accumulate"
       id="path4016"
       sodipodi:cx="87.5"
       sodipodi:cy="11.5"
       sodipodi:rx="1"
       sodipodi:ry="1"
       d="m 88.5,11.5 a 1,1 0 1 1 -2,0 1,1 0 1 1 2,0 z"
       transform="translate(0.5,1019.8622)" />
    <path
       style="fill:#ffffff;stroke:none"
       d="m 86.5,4 3,0 -1,5 -1,0 z"
       id="path4018"
       inkscape:connector-curvature="0"
       transform="translate(0,1020.3622)"
       sodipodi:nodetypes="ccccc" />
  </g>
</svg>
